# xmcd CD database file
#
# Track frame offsets:
#	150
#	18040
#	35937
#	54377
#	73190
#	91787
#	113927
#	132220
#	150200
#
# Disc length: 2268 seconds
#
# Revision: 0
# Processed by: cddbd v1.5.2PL0 Copyright (c) Steve Scherf et al.
# Submitted via: CDex 1.70beta2
#
DISCID=6b08da09
DTITLE=Casey Jones - The Crowd Pleaser
DYEAR=1993
DGENRE=Blues
TTITLE0=We are gonna have a (party tonight)
TTITLE1=I got troubles
TTITLE2=Your love
TTITLE3=Lucy Mae
TTITLE4=Mr. Blues
TTITLE5=Down and under
TTITLE6=Right mood
TTITLE7=I am a hog for ya
TTITLE8=Tribute to the boogie men
EXTD=YEAR: 1993
EXTT0=
EXTT1=
EXTT2=
EXTT3=
EXTT4=
EXTT5=
EXTT6=
EXTT7=
EXTT8=
PLAYORDER=
